<?xml version="1.0" standalone="no"?>
<!DOCTYPE svg PUBLIC "-//W3C//DTD SVG 20010904//EN"
 "http://www.w3.org/TR/2001/REC-SVG-20010904/DTD/svg10.dtd">
<svg version="1.0" xmlns="http://www.w3.org/2000/svg"
 width="181.000000pt" height="58.000000pt" viewBox="0 0 181.000000 58.000000"
 preserveAspectRatio="xMidYMid meet">

<g transform="translate(0.000000,58.000000) scale(0.100000,-0.100000)"
fill="#000000" stroke="none">
<path d="M0 290 l0 -290 905 0 905 0 0 290 0 290 -905 0 -905 0 0 -290z m403
114 c13 -4 17 -17 17 -60 0 -86 -8 -94 -90 -94 -57 0 -74 -4 -90 -20 -11 -11
-20 -24 -20 -30 0 -5 -7 -10 -15 -10 -10 0 -15 10 -15 29 0 22 -6 30 -25 35
-23 6 -25 11 -25 59 0 28 4 58 9 66 19 30 182 45 254 25z m727 -100 l0 -117
-37 6 c-21 4 -42 2 -50 -5 -17 -14 -68 7 -88 36 -19 27 -19 86 0 113 19 27 79
41 100 23 13 -11 15 -7 15 24 0 33 2 36 30 36 l30 0 0 -116z m220 0 l0 -116
-32 5 c-18 2 -40 1 -50 -4 -23 -12 -74 8 -92 36 -26 39 -20 82 14 117 26 26
36 30 65 25 31 -5 35 -3 35 17 0 29 7 36 37 36 23 0 23 -1 23 -116z m95 1 l0
-110 -27 -3 -28 -3 0 116 0 116 28 -3 27 -3 0 -110z m-883 58 c3 -35 6 -38 35
-41 30 -3 32 -1 35 35 3 33 7 38 31 41 l27 3 0 -105 0 -106 -30 0 c-29 0 -30
2 -30 43 0 41 -1 42 -32 41 -31 -1 -33 -3 -36 -42 -3 -37 -6 -42 -28 -42 -24
0 -24 0 -24 105 0 105 0 105 24 105 21 0 25 -5 28 -37z m228 -58 c5 -56 7 -60
30 -60 23 0 25 4 30 60 5 56 7 60 30 60 25 0 25 -1 25 -85 0 -81 -1 -85 -22
-88 -13 -2 -23 1 -23 7 0 6 -11 4 -26 -4 -34 -17 -77 -3 -93 31 -12 27 -15
126 -4 138 4 4 16 6 28 4 17 -3 21 -12 25 -63z m842 37 c10 -10 20 -31 21 -48
2 -29 2 -29 -62 -34 -56 -4 -62 -7 -48 -19 13 -10 24 -11 46 -3 20 7 32 7 40
-1 18 -18 13 -27 -24 -42 -37 -16 -74 -8 -107 22 -20 18 -24 83 -7 114 22 42
104 48 141 11z"/>
<path d="M205 386 c-39 -11 -40 -13 -43 -62 -3 -45 0 -52 18 -57 14 -4 20 -13
20 -34 l0 -28 23 27 c19 23 31 27 95 31 40 2 75 7 79 10 3 3 8 27 11 53 4 38
1 50 -13 61 -23 16 -134 16 -190 -1z m31 -62 c-5 -13 -10 -14 -18 -6 -6 6 -8
18 -4 28 5 13 10 14 18 6 6 -6 8 -18 4 -28z m64 12 c0 -20 -19 -31 -32 -18 -6
6 -7 15 -4 21 10 16 36 13 36 -3z m63 8 c9 -10 -4 -34 -18 -34 -17 0 -28 17
-20 30 7 11 28 13 38 4z"/>
<path d="M1000 305 c-7 -9 -10 -25 -6 -40 6 -22 11 -26 39 -23 25 2 33 8 35
26 7 44 -41 70 -68 37z"/>
<path d="M1220 301 c-16 -31 4 -63 37 -59 34 4 52 32 37 56 -16 26 -60 28 -74
3z"/>
<path d="M1540 310 c0 -5 14 -10 31 -10 17 0 28 4 24 10 -3 6 -17 10 -31 10
-13 0 -24 -4 -24 -10z"/>
</g>
</svg>
